{"scene":0,"asset":{"generator":"ImageToStl.com","version":"2.0"},"scenes":[{"name":"Scene","nodes":[0]}],"nodes":[{"name":"Node0","children":[1]},{"name":"Node1","mesh":0,"children":[2,3]},{"name":"Node2","mesh":1},{"name":"Node3","mesh":2}],"materials":[{"name":"x1","pbrMetallicRoughness":{"baseColorFactor":[0.85,0.85,0.85,1.0],"metallicFactor":0.0,"roughnessFactor":1.0},"doubleSided":true}],"meshes":[{"name":"Mesh0","primitives":[{"indices":1,"material":0,"attributes":{"POSITION":0}}]},{"name":"Mesh0","primitives":[{"indices":3,"material":0,"attributes":{"POSITION":2}}]},{"name":"Mesh0","primitives":[{"indices":5,"material":0,"attributes":{"POSITION":4}}]}],"accessors":[{"bufferView":0,"componentType":5126,"count":7964,"type":"VEC3","min":[62.9114,-17.971067,-194.4175],"max":[102.9114,17.97109,-86.68009]},{"bufferView":1,"componentType":5123,"count":36669,"type":"SCALAR"},{"bufferView":2,"componentType":5126,"count":8046,"type":"VEC3","min":[62.9114,-19.999989,-197.4175],"max":[102.9114,20.000011,-94.6989]},{"bufferView":3,"componentType":5123,"count":39165,"type":"SCALAR"},{"bufferView":4,"componentType":5126,"count":7854,"type":"VEC3","min":[62.9114,-19.999989,-197.4175],"max":[102.9114,18.000011,-86.67378]},{"bufferView":5,"componentType":5123,"count":36987,"type":"SCALAR"}],"bufferViews":[{"target":34962,"buffer":0,"byteLength":95568,"byteOffset":0},{"target":34963,"buffer":0,"byteLength":73338,"byteOffset":95568},{"target":34962,"buffer":0,"byteLength":96552,"byteOffset":168908},{"target":34963,"buffer":0,"byteLength":78330,"byteOffset":265460},{"target":34962,"buffer":0,"byteLength":94248,"byteOffset":343792},{"target":34963,"buffer":0,"byteLength":73974,"byteOffset":438040}],"buffers":[{"byteLength":512016,"uri":"data:application/octet-stream;base64,"}]}