{"scene":0,"asset":{"generator":"ImageToStl.com","version":"2.0"},"scenes":[{"name":"Scene","nodes":[0]}],"nodes":[{"name":"Node0","children":[1]},{"name":"Node1","mesh":0,"children":[2,3]},{"name":"Node2","mesh":1},{"name":"Node3","mesh":2}],"materials":[{"name":"x1","pbrMetallicRoughness":{"baseColorFactor":[0.85,0.85,0.85,1.0],"metallicFactor":0.0,"roughnessFactor":1.0},"doubleSided":true}],"meshes":[{"name":"Mesh0","primitives":[{"indices":1,"material":0,"attributes":{"POSITION":0}}]},{"name":"Mesh0","primitives":[{"indices":3,"material":0,"attributes":{"POSITION":2}}]},{"name":"Mesh0","primitives":[{"indices":5,"material":0,"attributes":{"POSITION":4}}]}],"accessors":[{"bufferView":0,"componentType":5126,"count":16647,"type":"VEC3","min":[66.11384,-19.147863,-195.41776],"max":[100.338875,18.599064,-114.56063]},{"bufferView":1,"componentType":5123,"count":91563,"type":"SCALAR"},{"bufferView":2,"componentType":5126,"count":11686,"type":"VEC3","min":[65.483925,-19.14478,-197.4175],"max":[101.91024,19.144957,-98.917496]},{"bufferView":3,"componentType":5123,"count":60219,"type":"SCALAR"},{"bufferView":4,"componentType":5126,"count":9419,"type":"VEC3","min":[63.91256,-18.999989,-197.4175],"max":[101.91024,19.000011,-105.338036]},{"bufferView":5,"componentType":5123,"count":46542,"type":"SCALAR"}],"bufferViews":[{"target":34962,"buffer":0,"byteLength":199764,"byteOffset":0},{"target":34963,"buffer":0,"byteLength":183126,"byteOffset":199764},{"target":34962,"buffer":0,"byteLength":140232,"byteOffset":382892},{"target":34963,"buffer":0,"byteLength":120438,"byteOffset":523124},{"target":34962,"buffer":0,"byteLength":113028,"byteOffset":643564},{"target":34963,"buffer":0,"byteLength":93084,"byteOffset":756592}],"buffers":[{"byteLength":849676,"uri":"data:application/octet-stream;base64,"}]}